<svg width="200" height="200" fill="aqua">
    <!-- 线 不显示-->
    <!-- <line x1="23" x2="50" y1="50" y2="100"></line> -->

    <!-- 折线 -->
    <!-- <polyline points="32 13 
    47 75 
    47 18 
    28 10" /> -->

    <!-- 长方形 -->
    <!-- <rect x="15" y="15" width="100" height="100" fill="yellowgreen" /> -->

    <!-- 圆形 -->
    <!-- <ellipse cx="100" cy="100" rx="100" ry="100" fill="pink" /> -->
    <!-- <ellipse style="fill:black;" cx="100" cy="147" rx="6" ry="6"></ellipse> -->

    <!-- 多边形 -->
    <!-- <polygon points="44 20, 50 50, 23 47,77,54 " /> -->

    <!-- 箭头 -->
    <!-- <path d="M 20 20 L 20 60 L 25 60 L 15 75 L5 60 L 10 60 L 10 20 Z"></path> -->

    <!-- <g id="arrow">
        <path d="M 20 20 L 20 60 L 25 60 L 15 75 L5 60 L 10 60 L 10 20 Z"></path>
    </g> -->

    <!-- <defs>
        <path d="M 20 20 L 20 60 L 25 60 L 15 75 L5 60 L 10 60 L 10 20 Z" id="arrow"></path>
    </defs> -->

    <symbol id="arrow" viewBox="5 25 50 150">
        <path d="M 20 20 L 20 60 L 25 60 L 15 75 L5 60 L 10 60 L 10 20 Z"></path>
    </symbol>

    <use x="10" y="10" href="#arrow"></use>

</svg>